<svg width="103" height="102" viewBox="0 0 103 102" fill="none" xmlns="http://www.w3.org/2000/svg">
<g filter="url(#filter0_d_37_384)">
<g clip-path="url(#clip0_37_384)">
<rect x="15" y="11" width="73" height="72" rx="36" fill="#222222" fill-opacity="0.35" shape-rendering="crispEdges"/>
<g filter="url(#filter1_d_37_384)">
<rect x="22" y="18" width="59" height="58" rx="29" fill="#5C307E"/>
<rect x="23" y="19" width="57" height="56" rx="28" stroke="url(#paint0_linear_37_384)" stroke-width="2"/>
<path d="M47.1461 28.6326C47.0694 27.4784 47.9849 26.5 49.1417 26.5H53.8579C55.0148 26.5 55.9304 27.4786 55.8535 28.6329L54.1218 54.6329C54.0519 55.6836 53.1792 56.5 52.1263 56.5H50.869C49.8159 56.5 48.9432 55.6834 48.8734 54.6326L47.1461 28.6326Z" fill="#D9D9D9"/>
<ellipse cx="51.5" cy="63.5" rx="4.5" ry="4" fill="#D9D9D9"/>
</g>
</g>
<rect x="15.75" y="11.75" width="71.5" height="70.5" rx="35.25" stroke="url(#paint1_linear_37_384)" stroke-width="1.5" shape-rendering="crispEdges"/>
</g>
<defs>
<filter id="filter0_d_37_384" x="0.7" y="0.7" width="101.6" height="100.6" filterUnits="userSpaceOnUse" color-interpolation-filters="sRGB">
<feFlood flood-opacity="0" result="BackgroundImageFix"/>
<feColorMatrix in="SourceAlpha" type="matrix" values="0 0 0 0 0 0 0 0 0 0 0 0 0 0 0 0 0 0 127 0" result="hardAlpha"/>
<feMorphology radius="3" operator="dilate" in="SourceAlpha" result="effect1_dropShadow_37_384"/>
<feOffset dy="4"/>
<feGaussianBlur stdDeviation="5.65"/>
<feComposite in2="hardAlpha" operator="out"/>
<feColorMatrix type="matrix" values="0 0 0 0 0 0 0 0 0 0 0 0 0 0 0 0 0 0 0.48 0"/>
<feBlend mode="normal" in2="BackgroundImageFix" result="effect1_dropShadow_37_384"/>
<feBlend mode="normal" in="SourceGraphic" in2="effect1_dropShadow_37_384" result="shape"/>
</filter>
<filter id="filter1_d_37_384" x="16.8" y="14.8" width="69.4" height="68.4" filterUnits="userSpaceOnUse" color-interpolation-filters="sRGB">
<feFlood flood-opacity="0" result="BackgroundImageFix"/>
<feColorMatrix in="SourceAlpha" type="matrix" values="0 0 0 0 0 0 0 0 0 0 0 0 0 0 0 0 0 0 127 0" result="hardAlpha"/>
<feMorphology radius="1" operator="dilate" in="SourceAlpha" result="effect1_dropShadow_37_384"/>
<feOffset dy="2"/>
<feGaussianBlur stdDeviation="2.1"/>
<feComposite in2="hardAlpha" operator="out"/>
<feColorMatrix type="matrix" values="0 0 0 0 0 0 0 0 0 0 0 0 0 0 0 0 0 0 0.59 0"/>
<feBlend mode="normal" in2="BackgroundImageFix" result="effect1_dropShadow_37_384"/>
<feBlend mode="normal" in="SourceGraphic" in2="effect1_dropShadow_37_384" result="shape"/>
</filter>
<linearGradient id="paint0_linear_37_384" x1="51.5" y1="18" x2="52.1063" y2="76" gradientUnits="userSpaceOnUse">
<stop stop-color="white" stop-opacity="0.85"/>
<stop offset="1" stop-opacity="0"/>
</linearGradient>
<linearGradient id="paint1_linear_37_384" x1="51.5" y1="11" x2="51.8258" y2="62.1927" gradientUnits="userSpaceOnUse">
<stop stop-color="white" stop-opacity="0.75"/>
<stop offset="1" stop-opacity="0"/>
</linearGradient>
<clipPath id="clip0_37_384">
<rect x="15" y="11" width="73" height="72" rx="36" fill="white"/>
</clipPath>
</defs>
</svg>
