<svg xmlns="http://www.w3.org/2000/svg" width="125" height="165" viewBox="0 0 125 165" fill="none">
	<path d="M45.79 160.58L57.36 162.94C62.4 163.97 67.6 164.02 72.67 163.07L79.89 161.73C84.12 160.94 87.85 158.49 90.25 154.91L94.89 147.99C96.01 146.31 97.02 144.56 97.89 142.74C101.39 135.41 110.68 115.62 110.68 111.83C110.68 110.9 112.31 109.43 114.35 108.5C118.29 106.63 118.7 105.57 122.23 89.43C125.08 76.37 124.68 70.9 120.74 70.37C118.02 69.97 117.75 72.67 118.3 59.07C119.25 36.14 105.5 17.5 105.5 17.5L103.19 15.44C95.56 8.62 86.12 4.17 76.02 2.6L69.84 1.64C64.97 0.88 60.02 0.81 55.13 1.42L50.4 2.01C40.03 3.31 30.28 7.64 22.37 14.46L20 16.5C20 16.5 5.57 36.14 6.52 59.07C7.06 72.67 7.33 69.97 4.61 70.37C0.67 70.9 0.26 76.37 3.12 89.43C6.65 105.57 7.06 106.63 11 108.5C13.04 109.43 14.67 110.9 14.67 111.83C14.67 115.19 21.71 131.16 25.65 139.83C27.35 143.58 29.61 147.04 32.32 150.14L36.95 155.43C39.25 158.07 42.36 159.88 45.79 160.58Z" stroke="#EEEEEE" stroke-width="1.5" fill="none" />
</svg>
