<svg width="191" height="131" viewBox="0 0 191 131" fill="none" xmlns="http://www.w3.org/2000/svg">
	<path d="M123.401 107.299C99.3412 114.465 74.8516 121.759 50.7916 128.925C49.9323 129.181 48.6434 129.565 47.6674 129.429C43.0208 129.533 40.7187 128.086 39.5516 124.167C38.6179 121.033 37.6842 117.898 36.8673 115.155C36.5171 113.979 35.854 113.324 34.5651 113.707C31.128 114.731 27.6908 115.755 24.2537 116.779C18.6683 118.442 17.5756 117.915 16.0584 112.82C11.6234 97.9301 7.07164 82.648 2.63664 67.7577C2.40322 66.974 2.28651 66.5822 2.05309 65.7985C1.89918 63.7113 2.525 62.6715 4.5565 61.6398C8.42328 60.4881 12.2901 59.3364 16.1568 58.1847C16.5865 58.0567 17.0161 57.9287 17.4458 57.8008C20.0236 57.033 20.0236 57.0331 19.3234 54.6819C17.9228 49.9797 16.5223 45.2776 15.1218 40.5754C13.9547 36.6569 15.7155 33.146 19.8952 31.4745C22.3564 30.3148 25.3639 29.4191 27.9418 28.6513C72.1949 15.4707 116.878 2.16208 161.131 -11.0186C163.709 -11.7864 166.287 -12.5543 168.981 -12.9302C173.824 -13.946 177.219 -11.9708 178.503 -7.66041C179.903 -2.9582 181.304 1.74392 182.704 6.44613C183.404 8.79723 183.405 8.79734 185.982 8.02953C189.849 6.87783 194.146 5.59816 198.012 4.44645C201.02 3.55068 202.229 4.4703 203.046 7.21325C207.715 22.8872 212.5 38.9531 217.168 54.6271C218.102 57.7619 217.593 59.1934 214.156 60.2171C210.289 61.3688 206.422 62.5205 202.555 63.6722C200.837 64.1841 200.094 64.8319 200.561 66.3993C201.495 69.5341 202.312 72.2771 203.245 75.4119C204.646 80.1141 202.885 83.6248 197.729 85.1604C194.722 86.0562 191.285 87.0799 188.277 87.9757C166.795 94.3741 145.313 100.772 123.401 107.299ZM77.1151 86.956C76.4148 84.6048 74.7385 82.1178 71.89 80.4066C67.9489 78.1675 63.5357 79.0554 60.7988 82.4302C56.4973 88.4041 59.1817 97.4167 66.0508 100.063C69.7586 101.519 74.055 100.239 76.2456 96.6004C78.2399 93.8733 78.2822 90.8745 77.1151 86.956ZM169.059 59.5709C168.475 57.6117 166.915 55.5165 164.926 53.5493C160.752 50.5266 155.792 51.1505 153.172 54.9172C148.87 60.8911 151.672 70.2956 158.97 72.8144C162.132 74.0058 165.569 72.9821 167.993 70.127C169.987 67.4 169.913 64.0093 169.059 59.5709Z" stroke="url(#paint0_linear_453_259)" stroke-width="3" />
	<defs>
		<linearGradient id="paint0_linear_453_259" x1="9.5" y1="89" x2="129.5" y2="46.5" gradientUnits="userSpaceOnUse">
			<stop stop-color="#AE9ACB" />
			<stop offset="0.9999" stop-color="#462A6D" stop-opacity="0.5" />
		</linearGradient>
	</defs>
</svg>
