<svg width="83" height="18" viewBox="0 0 83 18" fill="none" xmlns="http://www.w3.org/2000/svg">
<g filter="url(#filter0_b_23_250)">
<path d="M72.3445 17.7247C70.0136 17.7247 67.6827 17.7247 65.4415 17.7247C64.9036 17.7247 64.3657 17.6314 63.8278 17.5381C62.4831 17.1649 61.9452 16.1388 61.8555 14.8327C61.7659 13.2467 61.8555 11.6606 61.8555 10.0746C61.8555 7.92881 61.8555 5.78314 61.8555 3.63737C61.8555 2.89102 61.9452 2.23796 62.3934 1.5849C62.9313 0.745251 63.7382 0.37198 64.6347 0.278686C65.1726 0.185392 65.6208 0.185486 66.1587 0.185486C70.4619 0.185486 74.765 0.185486 78.9786 0.185486C79.5165 0.185486 80.0544 0.278781 80.5026 0.372075C81.7577 0.745252 82.4749 1.77149 82.5646 3.1709C82.5646 5.13008 82.5646 7.08926 82.5646 9.04844C82.5646 10.9143 82.5646 12.7801 82.5646 14.7393C82.5646 15.2991 82.4749 15.7656 82.2956 16.2321C81.937 17.0717 81.2198 17.4448 80.413 17.7247C80.144 17.818 79.8751 17.818 79.6061 17.818C77.0959 17.7247 74.6754 17.7247 72.3445 17.7247ZM65.8897 14.1796C70.1033 14.1796 74.2271 14.1796 78.4407 14.1796C78.4407 10.5411 78.4407 6.99587 78.4407 3.3574C78.351 3.3574 78.2614 3.3574 78.2614 3.3574C74.2271 3.3574 70.1929 3.3574 66.2483 3.3574C65.9794 3.3574 65.9794 3.45079 65.9794 3.63737C65.9794 6.62279 65.9794 9.60811 65.9794 12.5935C65.8897 13.1533 65.8897 13.7132 65.8897 14.1796Z" fill="white" fill-opacity="0.68"/>
<path d="M32.095 0.101196C32.2743 0.101196 32.3639 0.101196 32.3639 0.101196C33.619 0.101196 34.8741 0.101196 36.2188 0.101196C36.4878 0.101196 36.6671 0.19449 36.7567 0.381078C37.3843 1.5939 38.1015 2.80673 38.8187 4.01955C40.2531 6.81838 41.6875 9.61721 43.1219 12.416C43.1219 12.5093 43.2115 12.5093 43.3012 12.6959C43.3012 12.6026 43.3908 12.6026 43.3908 12.5093C44.2873 10.7367 45.2734 8.87086 46.1699 7.09827C47.1561 5.32567 48.0526 3.55308 49.0387 1.78049C49.3077 1.31402 49.5766 0.940842 49.8456 0.474371C50.0249 0.194488 50.2042 0.101196 50.4731 0.101196C51.5489 0.101196 52.535 0.101196 53.6108 0.101196C53.7005 0.101196 53.7901 0.101196 53.9694 0.101196C53.8798 0.287785 53.8798 0.381079 53.7901 0.567668C52.535 3.08661 51.28 5.60556 49.9352 8.03121C48.5905 10.5502 47.2457 13.1624 45.901 15.6813C45.5424 16.2411 45.1838 16.8942 44.8252 17.4539C44.6459 17.7338 44.4666 17.8271 44.1976 17.8271C43.5701 17.8271 42.9426 17.8271 42.315 17.8271C41.9564 17.8271 41.7771 17.6405 41.6875 17.4539C41.1496 16.521 40.6117 15.588 40.0738 14.5618C37.9222 10.6434 35.7706 6.81838 33.619 2.90002C33.1708 2.06038 32.7225 1.31402 32.2743 0.474371C32.1846 0.287783 32.1846 0.194491 32.095 0.101196Z" fill="white" fill-opacity="0.68"/>
<path d="M11.7441 14.1886C11.5648 14.5618 11.5648 14.935 11.3855 15.2149C11.0269 15.9612 10.5786 16.6143 10.22 17.3606C10.1304 17.5472 9.95109 17.6405 9.77179 17.6405C6.72373 17.6405 3.76527 17.6405 0.717185 17.6405C0.448237 17.6405 0.268948 17.6405 0 17.6405C0 17.4539 0 17.4539 0 17.3606C0 11.763 0 6.25862 0 0.66096C0 0.194489 -2.19085e-05 0.101196 0.537875 0.101196C1.61367 0.101196 2.68949 0.101196 3.76529 0.101196C4.03424 0.101196 4.03423 0.19449 4.03423 0.381078C4.03423 3.92626 4.03423 7.56474 4.03423 11.1099C4.03423 12.0429 4.03423 12.9758 4.03423 13.8154C4.03423 14.0953 4.12387 14.1886 4.30317 14.1886C6.5444 14.1886 8.69601 14.1886 10.9372 14.1886C11.1165 14.1886 11.3855 14.1886 11.7441 14.1886Z" fill="white" fill-opacity="0.68"/>
<path d="M21.2384 8.67636C21.2384 5.87754 21.2384 3.07871 21.2384 0.279882C21.2384 -7.229e-07 21.3281 0 21.5074 0C22.7624 0 23.9279 0 25.183 0C25.3623 0 25.3623 0.0932935 25.3623 0.279882C25.3623 1.6793 25.3623 2.98542 25.3623 4.38483C25.3623 8.58307 25.3623 12.7813 25.3623 16.9796C25.3623 17.6326 25.2726 17.7259 24.6451 17.7259C23.6589 17.7259 22.6728 17.7259 21.6867 17.7259C21.4177 17.7259 21.3281 17.6326 21.3281 17.3527C21.3281 17.1661 21.3281 16.9796 21.3281 16.793C21.2384 14.0874 21.2384 11.3819 21.2384 8.67636Z" fill="white" fill-opacity="0.68"/>
</g>
<defs>
<filter id="filter0_b_23_250" x="-4" y="-4" width="90.5646" height="25.8271" filterUnits="userSpaceOnUse" color-interpolation-filters="sRGB">
<feFlood flood-opacity="0" result="BackgroundImageFix"/>
<feGaussianBlur in="BackgroundImageFix" stdDeviation="2"/>
<feComposite in2="SourceAlpha" operator="in" result="effect1_backgroundBlur_23_250"/>
<feBlend mode="normal" in="SourceGraphic" in2="effect1_backgroundBlur_23_250" result="shape"/>
</filter>
</defs>
</svg>
